<svg id="Layer_1" data-name="Layer 1" xmlns="http://www.w3.org/2000/svg" viewBox="0 0 29.5 28"><defs><style>.cls-1,.cls-2{fill:#fff;}.cls-1{fill-rule:evenodd;}</style></defs><path id="path-1" class="cls-1" d="M10,2a5,5,0,0,1,5,5A5,5,0,0,1,5,7,5,5,0,0,1,10,2Zm0-2A7,7,0,0,0,3,7,7,7,0,0,0,17,7,7,7,0,0,0,10,0ZM20,28H18V23a5,5,0,0,0-5-5H7a5,5,0,0,0-5,5v5H0V23a7,7,0,0,1,7-7h6a7,7,0,0,1,7,7Z"/><rect class="cls-2" x="18.5" y="12.5" width="11" height="2.01"/><rect class="cls-2" x="18.5" y="12.5" width="11" height="2.01" transform="translate(10.5 37.4) rotate(-90)"/></svg>