<svg id="Layer_1" data-name="Layer 1" xmlns="http://www.w3.org/2000/svg" viewBox="0 0 512 512"><defs><style>.cls-1{fill:#9d9fa4;}</style></defs><path class="cls-1" d="M453.3,512H58.7A58.7,58.7,0,0,1,0,453.3v-352A58.7,58.7,0,0,1,58.7,42.7H453.3A58.7,58.7,0,0,1,512,101.3v352A58.7,58.7,0,0,1,453.3,512ZM58.7,74.7A26.7,26.7,0,0,0,32,101.3v352A26.8,26.8,0,0,0,58.7,480H453.3A26.8,26.8,0,0,0,480,453.3v-352a26.7,26.7,0,0,0-26.7-26.6Z"/><path class="cls-1" d="M496,202.7H16a16,16,0,0,1,0-32H496a16,16,0,0,1,0,32Z"/><path class="cls-1" d="M122.7,128a16,16,0,0,1-16-16V16a16,16,0,1,1,32,0v96A16,16,0,0,1,122.7,128Z"/><path class="cls-1" d="M389.3,128a16,16,0,0,1-16-16V16a16,16,0,0,1,32,0v96A16,16,0,0,1,389.3,128Z"/></svg>