<?xml version="1.0" encoding="UTF-8"?>
<svg width="18px" height="22px" viewBox="0 0 18 22" version="1.1" xmlns="http://www.w3.org/2000/svg" xmlns:xlink="http://www.w3.org/1999/xlink">
    <!-- Generator: Sketch 55 (78076) - https://sketchapp.com -->
    <title>mdpi/delete</title>
    <desc>Created with Sketch.</desc>
    <defs>
        <path d="M9,9 L10.5,9 L10.5,18 L9,18 L9,9 Z M13.5,9 L15,9 L15,18 L13.5,18 L13.5,9 Z M3,4.5 L3,6 L4.5,6 L4.5,21 C4.5,21.8284271 5.17157288,22.5 6,22.5 L18,22.5 C18.8284271,22.5 19.5,21.8284271 19.5,21 L19.5,6 L21,6 L21,4.5 L3,4.5 Z M6,21 L6,6 L18,6 L18,21 L6,21 Z M9,1.5 L15,1.5 L15,3 L9,3 L9,1.5 Z" id="path-1"></path>
    </defs>
    <g id="console" stroke="none" stroke-width="1" fill="none" fill-rule="evenodd">
        <g id="ICONS" transform="translate(-451.000000, -468.000000)">
            <g id="icon/formatting/delete/24" transform="translate(448.000000, 467.000000)">
                <mask id="mask-2" fill="white">
                    <use xlink:href="#path-1"></use>
                </mask>
                <use id="icon-color" fill="#FAFAFA" fill-rule="evenodd" xlink:href="#path-1"></use>
            </g>
        </g>
    </g>
</svg>