<?xml version="1.0" encoding="UTF-8"?>
<svg width="24px" height="28px" viewBox="0 0 24 28" version="1.1" xmlns="http://www.w3.org/2000/svg" xmlns:xlink="http://www.w3.org/1999/xlink">
    <!-- Generator: Sketch 63.1 (92452) - https://sketch.com -->
    <title>icon/formatting/delete/32</title>
    <desc>Created with Sketch.</desc>
    <defs>
        <path d="M12,12 L14,12 L14,24 L12,24 L12,12 Z M18,12 L20,12 L20,24 L18,24 L18,12 Z M4,6 L4,8 L6,8 L6,28 C6,29.1045695 6.8954305,30 8,30 L24,30 C25.1045695,30 26,29.1045695 26,28 L26,8 L28,8 L28,6 L4,6 Z M8,28 L8,8 L24,8 L24,28 L8,28 Z M12,2 L20,2 L20,4 L12,4 L12,2 Z" id="path-1"></path>
    </defs>
    <g id="Page-1" stroke="none" stroke-width="1" fill="none" fill-rule="evenodd">
        <g id="icons" transform="translate(-206.000000, -238.000000)">
            <g id="icon/formatting/delete/32" transform="translate(202.000000, 236.000000)">
                <mask id="mask-2" fill="white">
                    <use xlink:href="#path-1"></use>
                </mask>
                <use id="icon-color" fill="#000000" fill-rule="evenodd" xlink:href="#path-1"></use>
            </g>
        </g>
    </g>
</svg>