<svg id="Layer_1" data-name="Layer 1" xmlns="http://www.w3.org/2000/svg" viewBox="0 0 24.9 24.9"><defs><style>.cls-1{fill:#fff;}</style></defs><path class="cls-1" d="M376,410.6h-5.3v-7.1a1.8,1.8,0,0,0-1.8-1.8H354.6a1.8,1.8,0,0,0-1.7,1.8v23.1h24.9V412.4A1.8,1.8,0,0,0,376,410.6Zm-7.1,14.3H354.6V403.5h14.3Zm7.1,0h-5.3V412.4H376Zm-16-17.8h-1.8v3.5H360Zm0,5.3h-1.8V416H360Zm5.3-5.3h-1.8v3.5h1.8Zm0,5.3h-1.8V416h1.8Zm-5.3,5.3h-1.8v3.6H360Zm5.3,0h-1.8v3.6h1.8Z" transform="translate(-352.9 -401.7)"/></svg>