<svg id="Layer_1" data-name="Layer 1" xmlns="http://www.w3.org/2000/svg" viewBox="0 0 21 21"><defs><style>.cls-1{fill:#034094;fill-rule:evenodd;}</style></defs><g id="Page-1"><g id="icons"><g id="icon_status_info_24" data-name="icon/status/info/24"><g id="icon-color"><path id="path-1" class="cls-1" d="M11.8,14.8V8h-3V9.5h1.5v5.3H8v1.5h6V14.8ZM11,4.3a1.1,1.1,0,1,0,1.1,1.1A1.1,1.1,0,0,0,11,4.3Zm0,17.2A10.5,10.5,0,1,1,21.5,11,10.5,10.5,0,0,1,11,21.5ZM11,2a9,9,0,1,0,9,9A9,9,0,0,0,11,2Z" transform="translate(-0.5 -0.5)"/></g></g></g></g></svg>