<svg id="Layer_1" data-name="Layer 1" xmlns="http://www.w3.org/2000/svg" viewBox="0 0 28 28"><defs><style>.cls-1{fill:#2e7fb8;}</style></defs><path class="cls-1" d="M317.9,391.7a1.9,1.9,0,0,0,2-2v-6a1.9,1.9,0,0,0-2-2h-24a2,2,0,0,0-2,2v6a2,2,0,0,0,2,2h11v4h-6a2,2,0,0,0-2,2v4h-3a2,2,0,0,0-2,2v4a2,2,0,0,0,2,2h8a1.9,1.9,0,0,0,2-2v-4a1.9,1.9,0,0,0-2-2h-3v-4h14v4h-3a2,2,0,0,0-2,2v4a2,2,0,0,0,2,2h8a1.9,1.9,0,0,0,2-2v-4a1.9,1.9,0,0,0-2-2h-3v-4a1.9,1.9,0,0,0-2-2h-6v-4Zm-16,16h-8v-4h8Zm16,0h-8v-4h8Zm-24-24h24v6h-24Z" transform="translate(-291.9 -381.7)"/></svg>