<svg id="Layer_1" data-name="Layer 1" xmlns="http://www.w3.org/2000/svg" viewBox="0 0 30 28"><defs><style>.cls-1{fill:#2b2b2b;fill-rule:evenodd;}</style></defs><g id="Page-1"><g id="icons"><g id="icon_user_admin_32" data-name="icon/user/admin/32"><g id="icon-color"><path id="path-1" class="cls-1" d="M10,2A5,5,0,1,1,5,7a5,5,0,0,1,5-5Zm0-2a7,7,0,1,0,7,7A7,7,0,0,0,10,0ZM20,28H18V23a5,5,0,0,0-5-5H7a5,5,0,0,0-5,5v5H0V23a7,7,0,0,1,7-7h6a7,7,0,0,1,7,7Zm3-13.82-2.59-2.59L19,13l4,4,7-7L28.59,8.59,23,14.18Z"/></g></g></g></g></svg>