<svg id="Layer_1" data-name="Layer 1" xmlns="http://www.w3.org/2000/svg" viewBox="0 0 24 24"><defs><style>.cls-1{fill:#3c78ad;fill-rule:evenodd;}</style></defs><g id="Page-1"><g id="icons"><g id="icon_formatting_save_32" data-name="icon/formatting/save/32"><g id="icon-color"><path id="path-1" class="cls-1" d="M23.7,5.3l-5-5A.9.9,0,0,0,18,0H2A2,2,0,0,0,0,2V22a2,2,0,0,0,2,2H22a2,2,0,0,0,2-2V6A.9.9,0,0,0,23.7,5.3ZM8,2h8V6H8Zm8,20H8V14h8Zm2,0V14a2,2,0,0,0-2-2H8a2,2,0,0,0-2,2v8H2V2H6V6A2,2,0,0,0,8,8h8a2,2,0,0,0,2-2V2.4l4,4V22Z" transform="translate(0 0)"/></g></g></g></g></svg>