<svg id="Layer_1" data-name="Layer 1" xmlns="http://www.w3.org/2000/svg" viewBox="0 0 24 27"><defs><style>.cls-1{fill:#2e7fb9;}</style></defs><polygon class="cls-1" points="17 24.2 14.4 21.6 13 23 17 27 24 20 22.6 18.6 17 24.2"/><circle class="cls-1" cx="5" cy="5" r="1"/><circle class="cls-1" cx="5" cy="13" r="1"/><circle class="cls-1" cx="5" cy="21" r="1"/><path class="cls-1" d="M311.9,382.2h-16a2,2,0,0,0-2,2v22a2,2,0,0,0,2,2h8v-2h-8v-6h18v-16A1.9,1.9,0,0,0,311.9,382.2Zm0,16h-16v-6h16Zm0-8h-16v-6h16Z" transform="translate(-293.9 -382.2)"/></svg>