<svg fill="currentColor" xmlns="http://www.w3.org/2000/svg" viewBox="0 0 20 26" width="24" height="24"><defs></defs><path d="M313.9,382.7h-16a2,2,0,0,0-2,2v22a2,2,0,0,0,2,2h16a1.9,1.9,0,0,0,2-2v-22A1.9,1.9,0,0,0,313.9,382.7Zm0,24h-16v-6h16Zm0-8h-16v-6h16Zm0-8h-16v-6h16Zm-13-2a.9.9,0,0,0,1-1,1,1,0,0,0-1-1,1.1,1.1,0,0,0-1,1A1,1,0,0,0,300.9,388.7Zm0,8a.9.9,0,0,0,1-1,1,1,0,0,0-1-1,1.1,1.1,0,0,0-1,1A1,1,0,0,0,300.9,396.7Zm0,8a.9.9,0,0,0,1-1,1,1,0,0,0-1-1,1.1,1.1,0,0,0-1,1A1,1,0,0,0,300.9,404.7Z" transform="translate(-295.9 -382.7)"/></svg>