<svg id="Layer_1" data-name="Layer 1" xmlns="http://www.w3.org/2000/svg" viewBox="0 0 28 24"><defs><style>.cls-1{fill:#fff;}</style></defs><path class="cls-1" d="M305.5,392.7l-5.6,5.6-2.5-2.6-1.5,1.4,4,4,7-7Zm12.4-5h-12l-3.4-3.4a1.8,1.8,0,0,0-1.4-.6h-7.2a2,2,0,0,0-2,2v20a2,2,0,0,0,2,2h10v-2h-10v-20h7.2l3.4,3.4.6.6h12.8v8h2v-8A1.9,1.9,0,0,0,317.9,387.7Zm-3,15h-6a3.1,3.1,0,0,0-3,3v2h2v-2a1.1,1.1,0,0,1,1-1h6a1,1,0,0,1,1,1v2h2v-2A3,3,0,0,0,314.9,402.7Zm-3-1a4,4,0,0,0,0-8,4,4,0,0,0,0,8Zm0-6a2,2,0,0,1,0,4,2,2,0,0,1,0-4Z" transform="translate(-291.9 -383.7)"/></svg>