<svg id="Layer_1" data-name="Layer 1" xmlns="http://www.w3.org/2000/svg" viewBox="0 0 20.9 24.4"><defs><style>.cls-1{fill:#7b7b7b;}</style></defs><path class="cls-1" d="M-50,4.3h12.2a1.7,1.7,0,0,0,1.7-1.8V-.9a1.7,1.7,0,0,0-1.7-1.8H-50A1.8,1.8,0,0,0-51.7-.9v.8h-3.5V-2.7h-1.7v20a1.7,1.7,0,0,0,1.7,1.8h3.5v.8A1.8,1.8,0,0,0-50,21.7h12.2a1.7,1.7,0,0,0,1.7-1.8V16.5a1.7,1.7,0,0,0-1.7-1.8H-50a1.8,1.8,0,0,0-1.7,1.8v.8h-3.5V10.4h3.5v.8A1.8,1.8,0,0,0-50,13h12.2a1.7,1.7,0,0,0,1.7-1.8V7.8A1.7,1.7,0,0,0-37.8,6H-50a1.8,1.8,0,0,0-1.7,1.8v.8h-3.5V1.7h3.5v.8A1.8,1.8,0,0,0-50,4.3Zm0-5.2h12.2V2.5H-50Zm0,17.4h12.2v3.4H-50Zm0-8.7h12.2v3.4H-50Z" transform="translate(56.9 2.7)"/></svg>