<?xml version="1.0" encoding="UTF-8"?>
<svg width="16px" height="22px" viewBox="0 0 16 22" version="1.1" xmlns="http://www.w3.org/2000/svg" xmlns:xlink="http://www.w3.org/1999/xlink">
    <!-- Generator: Sketch 55 (78076) - https://sketchapp.com -->
    <title>UI</title>
    <desc>Created with Sketch.</desc>
    <defs>
        <path d="M18,1.5 L6,1.5 C5.17258157,1.50243015 4.50243015,2.17258157 4.5,3 L4.5,21 C4.50243015,21.8274184 5.17258157,22.4975699 6,22.5 L18,22.5 C18.8274184,22.4975699 19.4975699,21.8274184 19.5,21 L19.5,3 C19.4975699,2.17258157 18.8274184,1.50243015 18,1.5 Z M18,3 L18,4.5 L6,4.5 L6,3 L18,3 Z M18,6 L18,18 L6,18 L6,6 L18,6 Z M6,21 L6,19.5 L18,19.5 L18,21 L6,21 Z M10.5,13.635 L8.5575,11.6925 L7.5,12.75 L10.5,15.75 L16.5,9.75 L15.4425,8.6925 L10.5,13.635 L10.5,13.635 Z" id="path-1"></path>
    </defs>
    <g id="console" stroke="none" stroke-width="1" fill="none" fill-rule="evenodd">
        <g id="ICONS" transform="translate(-411.000000, -373.000000)">
            <g id="icon/image/mobile/check/24" transform="translate(407.000000, 372.000000)">
                <mask id="mask-2" fill="white">
                    <use xlink:href="#path-1"></use>
                </mask>
                <use id="icon-color" fill="#000000" fill-rule="evenodd" xlink:href="#path-1"></use>
            </g>
        </g>
    </g>
</svg>