<?xml version="1.0" encoding="UTF-8"?>
<svg width="22px" height="22px" viewBox="0 0 22 22" version="1.1" xmlns="http://www.w3.org/2000/svg" xmlns:xlink="http://www.w3.org/1999/xlink">
    <!-- Generator: Sketch 63.1 (92452) - https://sketch.com -->
    <title>icon/status/warning/24</title>
    <desc>Created with Sketch.</desc>
    <defs>
        <path d="M12,1.5 C6.20101013,1.5 1.5,6.20101013 1.5,12 C1.5,17.7989899 6.20101013,22.5 12,22.5 C17.7989899,22.5 22.5,17.7989899 22.5,12 C22.5,9.21522686 21.3937532,6.54451077 19.4246212,4.5753788 C17.4554892,2.60624682 14.7847731,1.5 12,1.5 Z M12,21 C7.02943725,21 3,16.9705627 3,12 C3,7.02943725 7.02943725,3 12,3 C16.9705627,3 21,7.02943725 21,12 C21,14.3869484 20.0517884,16.6761336 18.363961,18.363961 C16.6761336,20.0517884 14.3869484,21 12,21 Z M11.25,6 L12.75,6 L12.75,14.25 L11.25,14.25 L11.25,6 Z M12,15.75 C11.3786797,15.75 10.875,16.2536797 10.875,16.875 C10.875,17.4963203 11.3786797,18 12,18 C12.6213203,18 13.125,17.4963203 13.125,16.875 C13.125,16.2536797 12.6213203,15.75 12,15.75 Z" id="path-1"></path>
    </defs>
    <g id="Page-1" stroke="none" stroke-width="1" fill="none" fill-rule="evenodd">
        <g id="icons" transform="translate(-207.000000, -644.000000)">
            <g id="icon/status/warning/24" transform="translate(206.000000, 643.000000)">
                <mask id="mask-2" fill="white">
                    <use xlink:href="#path-1"></use>
                </mask>
                <use id="icon-color" fill="#000000" fill-rule="evenodd" xlink:href="#path-1"></use>
            </g>
        </g>
    </g>
</svg>